<svg xmlns="http://www.w3.org/2000/svg" xmlns:xlink="http://www.w3.org/1999/xlink" version="1.1" x="0px" y="0px" width="100px" height="100px" viewBox="0 0 100 100" enable-background="new 0 0 100 100" xml:space="preserve">
<g id="Captions">
</g>
<g id="Your_Icon">
	<g>
		<g>
		</g>
	</g>
	<circle cx="49.999" cy="8.087" r="8.087"/>
	<path d="M50,17.979c-9,0-17,3.979-17,3.979L34,57c0,2.209,1.791,4,4,4c0.19,0,0.372-0.03,0.554-0.056L41,96c0,2.209,1.791,4,4,4   s4-1.791,4-4V62h2v34c0,2.209,1.791,4,4,4s4-1.791,4-4l2.445-35.056C61.629,60.97,61.811,61,62,61c2.209,0,4-1.791,4-4l1-35.052   C67,21.948,59,17.979,50,17.979z M52,47l-2,2l-2-2l1-24l-1-2c0,0,0-1,2-1s2,1,2,1l-1,2L52,47z"/>
</g>
</svg>