<svg xmlns="http://www.w3.org/2000/svg" xmlns:xlink="http://www.w3.org/1999/xlink" version="1.1" id="Layer_1" x="0px" y="0px" width="100px" height="100px" viewBox="0 0 100 100" enable-background="new 0 0 100 100" xml:space="preserve">
<path d="M64,57l-2-33.052c0,0-1.945-1.256-7.376-1.75L50,33l-4.623-10.801C39.945,22.695,38,23.958,38,23.958L36,57  c0,2.081,1.595,3.771,3.626,3.962L37.542,71H42v26h0.05c0.245,1.693,1.688,3,3.45,3s3.205-1.307,3.45-3H49V71h2v26h0.051  c0.244,1.693,1.688,3,3.449,3s3.205-1.307,3.449-3H58V71h4.459l-2.084-10.038C62.404,60.771,64,59.08,64,57z"/>
<circle cx="49.999" cy="11.913" r="8.087"/>
</svg>