<svg xmlns="http://www.w3.org/2000/svg" xmlns:xlink="http://www.w3.org/1999/xlink" version="1.1" id="Lager_1" x="0px" y="0px" width="100px" height="100px" viewBox="0 0 100 100" enable-background="new 0 0 100 100" xml:space="preserve">
<path fill="#000000" d="M69.537,59.393l-3.826-20.681C64.825,33.92,60.135,30,55.289,30H44.717c-4.846,0-9.536,3.92-10.422,8.712  l-3.825,20.681c-0.821,4.438,1.9,8.122,6.155,8.643l4.547,24.997c0.698,3.836,4.44,6.974,8.317,6.974h1.029  c3.877,0,7.619-3.138,8.316-6.974l4.548-24.997C67.637,67.515,70.357,63.831,69.537,59.393z"/>
<path fill="#000000" d="M62.343,14.543c0-1.141-1.905-2.151-4.846-2.795V2.208c0-1.217-3.353-2.202-7.488-2.202  c-4.137,0-7.49,0.984-7.49,2.202v9.54c-2.941,0.644-4.846,1.654-4.846,2.795c0,1.136,1.882,2.142,4.793,2.786  C42.17,18.166,42,19.062,42,20c0,4.418,3.582,8,8,8c4.417,0,8-3.582,8-8c0-0.937-0.17-1.832-0.466-2.668  C60.454,16.688,62.343,15.681,62.343,14.543z"/>
</svg>